<svg width="256" height="256" viewBox="0 0 256 256" fill="none" xmlns="http://www.w3.org/2000/svg">
<rect width="256" height="256" rx="32" fill="#DBE6F5"/>
<path d="M149.914 242.12C142.714 242.12 137.194 239.4 133.354 233.96C136.394 232.36 138.954 230.76 141.034 229.16C143.114 227.56 144.714 225.72 145.834 223.64C147.114 221.56 147.754 219.16 147.754 216.44C147.754 213.4 147.274 210.76 146.314 208.52C145.514 206.44 143.994 204.6 141.754 203C139.674 201.4 136.554 200.04 132.394 198.92L125.914 197C118.714 194.76 112.394 192.12 106.954 189.08C101.674 186.04 97.1938 182.52 93.5138 178.52C89.9938 174.36 87.3538 169.8 85.5938 164.84C83.8338 159.88 82.9538 154.44 82.9538 148.52C82.9538 141.48 84.2338 134.28 86.7938 126.92C89.5138 119.56 93.9138 111.64 99.9938 103.16C106.074 94.52 114.234 84.92 124.474 74.36C134.714 63.8 147.354 51.72 162.394 38.12L159.754 46.28C151.594 49.64 143.114 52.52 134.314 54.92C125.674 57.32 117.834 58.52 110.794 58.52C105.194 58.52 100.394 57.64 96.3938 55.88C92.3938 54.12 89.2738 51.64 87.0338 48.44C84.9538 45.24 83.9138 41.4 83.9138 36.92C83.9138 32.12 85.7538 27.88 89.4337 24.2C93.1138 20.36 97.3538 18.44 102.154 18.44C103.754 22.12 105.834 25.16 108.394 27.56C110.954 29.8 114.234 31.48 118.234 32.6C122.394 33.72 127.274 34.28 132.874 34.28C137.994 34.28 142.394 33.88 146.074 33.08C149.914 32.28 153.354 31.32 156.394 30.2C159.594 29.08 162.394 28.12 164.794 27.32C167.354 26.36 169.754 25.88 171.994 25.88C175.994 25.88 178.954 26.92 180.874 29C182.954 31.08 183.994 34.2 183.994 38.36L169.114 51.56C161.754 58.12 155.194 64.68 149.434 71.24C143.834 77.64 139.034 84.04 135.034 90.44C131.034 96.68 127.754 102.92 125.194 109.16C122.634 115.24 120.714 121.32 119.434 127.4C118.314 133.32 117.754 139.32 117.754 145.4C117.754 151 118.314 156.04 119.434 160.52C120.714 164.84 122.554 168.76 124.954 172.28C127.354 175.64 130.554 178.6 134.554 181.16C138.554 183.72 143.274 185.96 148.714 187.88L153.034 189.32C157.034 190.6 160.474 192.12 163.354 193.88C166.394 195.48 168.874 197.32 170.794 199.4C172.874 201.64 174.394 204.04 175.354 206.6C176.314 209.16 176.794 211.96 176.794 215C176.794 219.16 175.754 223.32 173.674 227.48C171.594 231.64 168.554 235.08 164.554 237.8C160.714 240.68 155.834 242.12 149.914 242.12Z" fill="black"/>
</svg>
