<svg width="1655" height="258" viewBox="0 0 1655 258" fill="none" xmlns="http://www.w3.org/2000/svg">
<path d="M242.034 206V180.08L319.794 68.72H246.114V42.8H351.714V68.72L273.474 180.08H351.714V206H242.034ZM436.1 208.4C388.34 208.4 377.78 196.4 377.78 142.4C377.78 88.64 388.34 76.88 436.1 76.88C483.62 76.88 494.18 88.64 494.18 142.4C494.18 196.4 483.62 208.4 436.1 208.4ZM436.1 182.72C460.82 182.72 466.34 175.52 466.34 142.4C466.34 109.76 460.82 102.56 436.1 102.56C411.14 102.56 405.62 109.76 405.62 142.4C405.62 175.52 411.14 182.72 436.1 182.72Z" fill="white"/>
<path d="M655.335 163.04H683.655C680.535 200.24 670.695 208.4 628.935 208.4C581.175 208.4 570.615 193.28 570.615 124.4C570.615 58.4 583.095 40.4 628.935 40.4C669.735 40.4 679.335 48.8 682.215 86.72H653.895C651.015 69.92 646.455 66.32 628.935 66.32C605.175 66.32 599.895 76.64 599.895 123.92C599.895 171.92 605.175 182.48 628.935 182.48C648.135 182.48 652.935 178.88 655.335 163.04ZM762.281 208.4C714.521 208.4 703.961 196.4 703.961 142.4C703.961 88.64 714.521 76.88 762.281 76.88C809.801 76.88 820.361 88.64 820.361 142.4C820.361 196.4 809.801 208.4 762.281 208.4ZM762.281 182.72C787.001 182.72 792.521 175.52 792.521 142.4C792.521 109.76 787.001 102.56 762.281 102.56C737.321 102.56 731.801 109.76 731.801 142.4C731.801 175.52 737.321 182.72 762.281 182.72ZM838.987 206V79.28H861.307V94.64H862.747C868.987 80.72 874.507 76.88 888.427 76.88C902.347 76.88 907.387 80.72 910.987 94.64H912.427C917.947 80.72 923.227 76.88 936.187 76.88C958.267 76.88 964.267 88.16 964.267 129.92V206H938.587V129.92C938.587 108.08 936.187 102.08 927.547 102.08C917.467 102.08 914.587 110.24 914.587 140V206H888.907V129.92C888.907 108.08 886.507 102.08 877.867 102.08C867.547 102.08 864.667 110.24 864.667 140V206H838.987ZM987.694 257.6V79.28H1014.81V92H1016.01C1020.57 79.52 1026.09 76.88 1046.49 76.88C1087.53 76.88 1096.65 88.88 1096.65 143.36C1096.65 196.64 1088.01 208.4 1048.17 208.4C1027.77 208.4 1022.25 205.76 1017.21 193.28H1016.01V257.6H987.694ZM1041.45 182.72C1063.77 182.72 1068.81 175.52 1068.81 142.64C1068.81 109.76 1063.77 102.56 1041.45 102.56C1019.37 102.56 1014.57 109.76 1014.57 142.64C1014.57 175.52 1019.37 182.72 1041.45 182.72ZM1231.44 79.28V206H1206.72V186.8H1205.52C1198.8 204.56 1192.08 208.4 1168.56 208.4C1134.48 208.4 1127.04 199.52 1127.04 159.44V79.28H1155.36V159.44C1155.36 178.4 1159.2 182.48 1176.24 182.48C1198.32 182.48 1203.12 175.76 1203.12 144.8V79.28H1231.44ZM1262.31 102.08L1269.27 79.28H1294.47V53.36L1322.07 41.84V79.28H1363.35V102.08H1321.59V164.96C1321.59 179.12 1325.43 182.24 1343.43 182.24C1350.87 182.24 1355.67 181.76 1369.35 179.6V205.28C1348.71 207.92 1342.23 208.4 1334.31 208.4C1301.43 208.4 1294.23 200.72 1294.23 165.68V102.08H1262.31ZM1483.73 171.68H1510.37C1505.81 201.68 1496.93 208.4 1461.41 208.4C1414.37 208.4 1404.05 196.4 1404.05 142.4C1404.05 88.64 1413.65 76.88 1457.33 76.88C1503.65 76.88 1513.49 90.8 1512.05 154.4H1430.93C1432.37 178.4 1437.89 183.68 1460.93 183.68C1476.29 183.68 1480.37 181.52 1483.73 171.68ZM1431.17 132.8H1485.65C1484.45 106.4 1479.41 100.64 1458.53 100.64C1437.17 100.64 1432.13 106.4 1431.17 132.8ZM1562.36 206V79.28H1586.36L1582.52 104.96H1583.72C1596.92 80.24 1598.84 79.04 1620.68 78.8C1632.2 78.56 1638.2 78.8 1654.04 80.24V107.84C1643.48 106.16 1638.2 105.68 1631 105.68C1597.64 105.68 1590.44 114.32 1590.44 153.44V206H1562.36Z" fill="white"/>
<path d="M149.914 242.12C142.714 242.12 137.194 239.4 133.354 233.96C136.394 232.36 138.954 230.76 141.034 229.16C143.114 227.56 144.714 225.72 145.834 223.64C147.114 221.56 147.754 219.16 147.754 216.44C147.754 213.4 147.274 210.76 146.314 208.52C145.514 206.44 143.994 204.6 141.754 203C139.674 201.4 136.554 200.04 132.394 198.92L125.914 197C118.714 194.76 112.394 192.12 106.954 189.08C101.674 186.04 97.1938 182.52 93.5138 178.52C89.9938 174.36 87.3538 169.8 85.5938 164.84C83.8338 159.88 82.9538 154.44 82.9538 148.52C82.9538 141.48 84.2338 134.28 86.7938 126.92C89.5138 119.56 93.9138 111.64 99.9938 103.16C106.074 94.52 114.234 84.92 124.474 74.36C134.714 63.8 147.354 51.72 162.394 38.12L159.754 46.28C151.594 49.64 143.114 52.52 134.314 54.92C125.674 57.32 117.834 58.52 110.794 58.52C105.194 58.52 100.394 57.64 96.3938 55.88C92.3938 54.12 89.2738 51.64 87.0338 48.44C84.9538 45.24 83.9138 41.4 83.9138 36.92C83.9138 32.12 85.7538 27.88 89.4337 24.2C93.1138 20.36 97.3538 18.44 102.154 18.44C103.754 22.12 105.834 25.16 108.394 27.56C110.954 29.8 114.234 31.48 118.234 32.6C122.394 33.72 127.274 34.28 132.874 34.28C137.994 34.28 142.394 33.88 146.074 33.08C149.914 32.28 153.354 31.32 156.394 30.2C159.594 29.08 162.394 28.12 164.794 27.32C167.354 26.36 169.754 25.88 171.994 25.88C175.994 25.88 178.954 26.92 180.874 29C182.954 31.08 183.994 34.2 183.994 38.36L169.114 51.56C161.754 58.12 155.194 64.68 149.434 71.24C143.834 77.64 139.034 84.04 135.034 90.44C131.034 96.68 127.754 102.92 125.194 109.16C122.634 115.24 120.714 121.32 119.434 127.4C118.314 133.32 117.754 139.32 117.754 145.4C117.754 151 118.314 156.04 119.434 160.52C120.714 164.84 122.554 168.76 124.954 172.28C127.354 175.64 130.554 178.6 134.554 181.16C138.554 183.72 143.274 185.96 148.714 187.88L153.034 189.32C157.034 190.6 160.474 192.12 163.354 193.88C166.394 195.48 168.874 197.32 170.794 199.4C172.874 201.64 174.394 204.04 175.354 206.6C176.314 209.16 176.794 211.96 176.794 215C176.794 219.16 175.754 223.32 173.674 227.48C171.594 231.64 168.554 235.08 164.554 237.8C160.714 240.68 155.834 242.12 149.914 242.12Z" fill="#4B7AE6"/>
</svg>
