<svg width="1791" height="258" viewBox="0 0 1791 258" fill="none" xmlns="http://www.w3.org/2000/svg">
<path d="M399.926 42C403.446 42 406.886 43.28 410.246 45.84C413.766 48.4 415.526 51.84 415.526 56.16C415.526 59.2 414.406 62.24 412.166 65.28L320.246 183.36L317.366 182.4H397.526C401.686 182.4 405.126 183.68 407.846 186.24C410.726 188.64 412.166 191.92 412.166 196.08C412.166 200.08 410.726 203.44 407.846 206.16C405.126 208.72 401.686 210 397.526 210H292.166C288.006 210 284.406 208.56 281.366 205.68C278.326 202.64 276.806 199.36 276.806 195.84C276.806 192.8 277.926 189.76 280.166 186.72L372.326 68.16L374.486 69.6H301.766C297.606 69.6 294.086 68.32 291.206 65.76C288.486 63.2 287.126 59.84 287.126 55.68C287.126 51.52 288.486 48.24 291.206 45.84C294.086 43.28 297.606 42 301.766 42H399.926ZM563.019 145.92C563.019 159.04 560.059 170.64 554.139 180.72C548.379 190.64 540.539 198.4 530.619 204C520.859 209.6 509.899 212.4 497.739 212.4C485.579 212.4 474.539 209.6 464.619 204C454.859 198.4 447.019 190.64 441.099 180.72C435.339 170.64 432.459 159.04 432.459 145.92C432.459 132.8 435.339 121.28 441.099 111.36C447.019 101.28 454.859 93.44 464.619 87.84C474.539 82.08 485.579 79.2 497.739 79.2C509.899 79.2 520.859 82.08 530.619 87.84C540.539 93.44 548.379 101.28 554.139 111.36C560.059 121.28 563.019 132.8 563.019 145.92ZM534.219 145.92C534.219 137.76 532.539 130.72 529.179 124.8C525.979 118.72 521.579 114 515.979 110.64C510.539 107.28 504.459 105.6 497.739 105.6C491.019 105.6 484.859 107.28 479.259 110.64C473.819 114 469.419 118.72 466.059 124.8C462.859 130.72 461.259 137.76 461.259 145.92C461.259 153.92 462.859 160.96 466.059 167.04C469.419 172.96 473.819 177.6 479.259 180.96C484.859 184.32 491.019 186 497.739 186C504.459 186 510.539 184.32 515.979 180.96C521.579 177.6 525.979 172.96 529.179 167.04C532.539 160.96 534.219 153.92 534.219 145.92ZM775.491 50.16C779.651 52.24 782.051 55.52 782.691 60C783.491 64.48 782.371 68.56 779.331 72.24C777.251 75.12 774.531 76.72 771.171 77.04C767.971 77.36 764.691 76.72 761.331 75.12C757.491 73.36 753.411 72 749.091 71.04C744.931 70.08 740.531 69.6 735.891 69.6C727.251 69.6 719.491 70.96 712.611 73.68C705.891 76.4 700.131 80.32 695.331 85.44C690.531 90.4 686.851 96.32 684.291 103.2C681.891 110.08 680.691 117.68 680.691 126C680.691 135.76 682.051 144.24 684.771 151.44C687.651 158.64 691.571 164.64 696.531 169.44C701.491 174.24 707.331 177.84 714.051 180.24C720.771 182.48 728.051 183.6 735.891 183.6C740.211 183.6 744.531 183.2 748.851 182.4C753.171 181.6 757.331 180.16 761.331 178.08C764.691 176.48 767.971 175.92 771.171 176.4C774.531 176.88 777.331 178.56 779.571 181.44C782.771 185.44 783.891 189.6 782.931 193.92C782.131 198.08 779.731 201.12 775.731 203.04C771.571 205.12 767.251 206.88 762.771 208.32C758.451 209.6 754.051 210.56 749.571 211.2C745.091 212 740.531 212.4 735.891 212.4C724.371 212.4 713.411 210.56 703.011 206.88C692.771 203.2 683.571 197.76 675.411 190.56C667.411 183.36 661.091 174.4 656.451 163.68C651.811 152.8 649.491 140.24 649.491 126C649.491 113.68 651.571 102.32 655.731 91.92C660.051 81.52 666.051 72.56 673.731 65.04C681.571 57.36 690.771 51.44 701.331 47.28C711.891 42.96 723.411 40.8 735.891 40.8C742.931 40.8 749.811 41.6 756.531 43.2C763.251 44.8 769.571 47.12 775.491 50.16ZM930.519 145.92C930.519 159.04 927.559 170.64 921.639 180.72C915.879 190.64 908.039 198.4 898.119 204C888.359 209.6 877.399 212.4 865.239 212.4C853.079 212.4 842.039 209.6 832.119 204C822.359 198.4 814.519 190.64 808.599 180.72C802.839 170.64 799.959 159.04 799.959 145.92C799.959 132.8 802.839 121.28 808.599 111.36C814.519 101.28 822.359 93.44 832.119 87.84C842.039 82.08 853.079 79.2 865.239 79.2C877.399 79.2 888.359 82.08 898.119 87.84C908.039 93.44 915.879 101.28 921.639 111.36C927.559 121.28 930.519 132.8 930.519 145.92ZM901.719 145.92C901.719 137.76 900.039 130.72 896.679 124.8C893.479 118.72 889.079 114 883.479 110.64C878.039 107.28 871.959 105.6 865.239 105.6C858.519 105.6 852.359 107.28 846.759 110.64C841.319 114 836.919 118.72 833.559 124.8C830.359 130.72 828.759 137.76 828.759 145.92C828.759 153.92 830.359 160.96 833.559 167.04C836.919 172.96 841.319 177.6 846.759 180.96C852.359 184.32 858.519 186 865.239 186C871.959 186 878.039 184.32 883.479 180.96C889.079 177.6 893.479 172.96 896.679 167.04C900.039 160.96 901.719 153.92 901.719 145.92ZM1023.17 79.2C1035.97 79.2 1045.41 82.32 1051.49 88.56C1057.57 94.64 1061.57 102.56 1063.48 112.32L1059.41 110.16L1061.32 106.32C1063.25 102.64 1066.21 98.72 1070.21 94.56C1074.21 90.24 1079.01 86.64 1084.61 83.76C1090.37 80.72 1096.77 79.2 1103.81 79.2C1115.33 79.2 1124.05 81.68 1129.97 86.64C1136.05 91.6 1140.21 98.24 1142.45 106.56C1144.69 114.72 1145.81 123.84 1145.81 133.92V195.36C1145.81 199.52 1144.45 203.04 1141.73 205.92C1139.01 208.64 1135.57 210 1131.41 210C1127.25 210 1123.81 208.64 1121.09 205.92C1118.37 203.04 1117.01 199.52 1117.01 195.36V133.92C1117.01 128.64 1116.37 123.92 1115.09 119.76C1113.81 115.44 1111.49 112 1108.13 109.44C1104.77 106.88 1099.97 105.6 1093.73 105.6C1087.65 105.6 1082.45 106.88 1078.13 109.44C1073.81 112 1070.53 115.44 1068.29 119.76C1066.21 123.92 1065.17 128.64 1065.17 133.92V195.36C1065.17 199.52 1063.81 203.04 1061.09 205.92C1058.37 208.64 1054.93 210 1050.77 210C1046.61 210 1043.17 208.64 1040.45 205.92C1037.73 203.04 1036.37 199.52 1036.37 195.36V133.92C1036.37 128.64 1035.73 123.92 1034.45 119.76C1033.17 115.44 1030.85 112 1027.49 109.44C1024.13 106.88 1019.33 105.6 1013.09 105.6C1007.01 105.6 1001.81 106.88 997.485 109.44C993.165 112 989.885 115.44 987.645 119.76C985.565 123.92 984.525 128.64 984.525 133.92V195.36C984.525 199.52 983.165 203.04 980.445 205.92C977.725 208.64 974.285 210 970.125 210C965.965 210 962.525 208.64 959.805 205.92C957.085 203.04 955.725 199.52 955.725 195.36V96.24C955.725 92.08 957.085 88.64 959.805 85.92C962.525 83.04 965.965 81.6 970.125 81.6C974.285 81.6 977.725 83.04 980.445 85.92C983.165 88.64 984.525 92.08 984.525 96.24V106.56L980.925 105.84C982.365 103.12 984.365 100.24 986.925 97.2C989.485 94 992.605 91.04 996.285 88.32C999.965 85.6 1004.05 83.44 1008.53 81.84C1013.01 80.08 1017.89 79.2 1023.17 79.2ZM1243.46 79.2C1254.66 79.2 1264.66 82.08 1273.46 87.84C1282.42 93.44 1289.46 101.2 1294.58 111.12C1299.86 121.04 1302.49 132.56 1302.49 145.68C1302.49 158.8 1299.86 170.4 1294.58 180.48C1289.46 190.4 1282.5 198.24 1273.7 204C1265.06 209.6 1255.3 212.4 1244.42 212.4C1238.02 212.4 1232.02 211.36 1226.42 209.28C1220.82 207.2 1215.86 204.56 1211.54 201.36C1207.38 198.16 1204.1 194.96 1201.7 191.76C1199.46 188.4 1198.34 185.6 1198.34 183.36L1205.78 180.24V243.36C1205.78 247.52 1204.42 250.96 1201.7 253.68C1198.98 256.56 1195.54 258 1191.38 258C1187.22 258 1183.78 256.64 1181.06 253.92C1178.34 251.2 1176.98 247.68 1176.98 243.36V96.24C1176.98 92.08 1178.34 88.64 1181.06 85.92C1183.78 83.04 1187.22 81.6 1191.38 81.6C1195.54 81.6 1198.98 83.04 1201.7 85.92C1204.42 88.64 1205.78 92.08 1205.78 96.24V108L1201.7 105.84C1201.7 103.76 1202.82 101.28 1205.06 98.4C1207.3 95.36 1210.34 92.4 1214.18 89.52C1218.02 86.48 1222.42 84 1227.38 82.08C1232.5 80.16 1237.86 79.2 1243.46 79.2ZM1239.86 105.6C1232.82 105.6 1226.66 107.36 1221.38 110.88C1216.1 114.4 1211.94 119.2 1208.9 125.28C1206.02 131.2 1204.58 138 1204.58 145.68C1204.58 153.2 1206.02 160.08 1208.9 166.32C1211.94 172.4 1216.1 177.2 1221.38 180.72C1226.66 184.24 1232.82 186 1239.86 186C1246.9 186 1252.98 184.24 1258.1 180.72C1263.38 177.2 1267.46 172.4 1270.34 166.32C1273.38 160.08 1274.9 153.2 1274.9 145.68C1274.9 138 1273.38 131.2 1270.34 125.28C1267.46 119.2 1263.38 114.4 1258.1 110.88C1252.98 107.36 1246.9 105.6 1239.86 105.6ZM1422.96 81.6C1427.12 81.6 1430.56 83.04 1433.28 85.92C1436 88.64 1437.36 92.08 1437.36 96.24V157.2C1437.36 174.16 1432.64 187.6 1423.2 197.52C1413.76 207.44 1400.16 212.4 1382.4 212.4C1364.64 212.4 1351.04 207.44 1341.6 197.52C1332.32 187.6 1327.68 174.16 1327.68 157.2V96.24C1327.68 92.08 1329.04 88.64 1331.76 85.92C1334.48 83.04 1337.92 81.6 1342.08 81.6C1346.24 81.6 1349.68 83.04 1352.4 85.92C1355.12 88.64 1356.48 92.08 1356.48 96.24V157.2C1356.48 166.96 1358.64 174.24 1362.96 179.04C1367.28 183.68 1373.76 186 1382.4 186C1391.2 186 1397.76 183.68 1402.08 179.04C1406.4 174.24 1408.56 166.96 1408.56 157.2V96.24C1408.56 92.08 1409.92 88.64 1412.64 85.92C1415.36 83.04 1418.8 81.6 1422.96 81.6ZM1469.98 84H1526.86C1530.7 84 1533.9 85.28 1536.46 87.84C1539.02 90.4 1540.3 93.6 1540.3 97.44C1540.3 101.12 1539.02 104.24 1536.46 106.8C1533.9 109.2 1530.7 110.4 1526.86 110.4H1469.98C1466.14 110.4 1462.94 109.12 1460.38 106.56C1457.82 104 1456.54 100.8 1456.54 96.96C1456.54 93.28 1457.82 90.24 1460.38 87.84C1462.94 85.28 1466.14 84 1469.98 84ZM1495.66 54C1499.82 54 1503.18 55.44 1505.74 58.32C1508.46 61.04 1509.82 64.48 1509.82 68.64V175.44C1509.82 177.68 1510.22 179.52 1511.02 180.96C1511.98 182.4 1513.18 183.44 1514.62 184.08C1516.22 184.72 1517.9 185.04 1519.66 185.04C1521.58 185.04 1523.34 184.72 1524.94 184.08C1526.54 183.28 1528.38 182.88 1530.46 182.88C1532.7 182.88 1534.7 183.92 1536.46 186C1538.38 188.08 1539.34 190.96 1539.34 194.64C1539.34 199.12 1536.86 202.8 1531.9 205.68C1527.1 208.56 1521.9 210 1516.3 210C1512.94 210 1509.18 209.76 1505.02 209.28C1501.02 208.64 1497.18 207.28 1493.5 205.2C1489.98 202.96 1487.02 199.6 1484.62 195.12C1482.22 190.64 1481.02 184.48 1481.02 176.64V68.64C1481.02 64.48 1482.38 61.04 1485.1 58.32C1487.98 55.44 1491.5 54 1495.66 54ZM1626.05 212.4C1612.45 212.4 1600.61 209.6 1590.53 204C1580.61 198.24 1572.93 190.48 1567.49 180.72C1562.21 170.96 1559.57 159.92 1559.57 147.6C1559.57 133.2 1562.45 120.96 1568.21 110.88C1574.13 100.64 1581.81 92.8 1591.25 87.36C1600.69 81.92 1610.69 79.2 1621.25 79.2C1629.41 79.2 1637.09 80.88 1644.29 84.24C1651.65 87.6 1658.13 92.24 1663.73 98.16C1669.33 103.92 1673.73 110.64 1676.93 118.32C1680.29 126 1681.97 134.16 1681.97 142.8C1681.81 146.64 1680.29 149.76 1677.41 152.16C1674.53 154.56 1671.17 155.76 1667.33 155.76H1575.65L1568.45 131.76H1656.53L1651.25 136.56V130.08C1650.93 125.44 1649.25 121.28 1646.21 117.6C1643.33 113.92 1639.65 111.04 1635.17 108.96C1630.85 106.72 1626.21 105.6 1621.25 105.6C1616.45 105.6 1611.97 106.24 1607.81 107.52C1603.65 108.8 1600.05 110.96 1597.01 114C1593.97 117.04 1591.57 121.12 1589.81 126.24C1588.05 131.36 1587.17 137.84 1587.17 145.68C1587.17 154.32 1588.93 161.68 1592.45 167.76C1596.13 173.68 1600.77 178.24 1606.37 181.44C1612.13 184.48 1618.21 186 1624.61 186C1630.53 186 1635.25 185.52 1638.77 184.56C1642.29 183.6 1645.09 182.48 1647.17 181.2C1649.41 179.76 1651.41 178.56 1653.17 177.6C1656.05 176.16 1658.77 175.44 1661.33 175.44C1664.85 175.44 1667.73 176.64 1669.97 179.04C1672.37 181.44 1673.57 184.24 1673.57 187.44C1673.57 191.76 1671.33 195.68 1666.85 199.2C1662.69 202.72 1656.85 205.84 1649.33 208.56C1641.81 211.12 1634.05 212.4 1626.05 212.4ZM1721.53 210C1717.37 210 1713.93 208.64 1711.21 205.92C1708.49 203.04 1707.13 199.52 1707.13 195.36V96.24C1707.13 92.08 1708.49 88.64 1711.21 85.92C1713.93 83.04 1717.37 81.6 1721.53 81.6C1725.69 81.6 1729.13 83.04 1731.85 85.92C1734.57 88.64 1735.93 92.08 1735.93 96.24V118.8L1734.25 102.72C1736.01 98.88 1738.25 95.52 1740.97 92.64C1743.85 89.6 1747.05 87.12 1750.57 85.2C1754.09 83.12 1757.85 81.6 1761.85 80.64C1765.85 79.68 1769.85 79.2 1773.85 79.2C1778.65 79.2 1782.65 80.56 1785.85 83.28C1789.21 86 1790.89 89.2 1790.89 92.88C1790.89 98.16 1789.53 102 1786.81 104.4C1784.09 106.64 1781.13 107.76 1777.93 107.76C1774.89 107.76 1772.09 107.2 1769.53 106.08C1767.13 104.96 1764.33 104.4 1761.13 104.4C1758.25 104.4 1755.29 105.12 1752.25 106.56C1749.37 107.84 1746.65 109.92 1744.09 112.8C1741.69 115.68 1739.69 119.28 1738.09 123.6C1736.65 127.76 1735.93 132.72 1735.93 138.48V195.36C1735.93 199.52 1734.57 203.04 1731.85 205.92C1729.13 208.64 1725.69 210 1721.53 210Z" fill="black"/>
<path d="M149.914 242.12C142.714 242.12 137.194 239.4 133.354 233.96C136.394 232.36 138.954 230.76 141.034 229.16C143.114 227.56 144.714 225.72 145.834 223.64C147.114 221.56 147.754 219.16 147.754 216.44C147.754 213.4 147.274 210.76 146.314 208.52C145.514 206.44 143.994 204.6 141.754 203C139.674 201.4 136.554 200.04 132.394 198.92L125.914 197C118.714 194.76 112.394 192.12 106.954 189.08C101.674 186.04 97.1938 182.52 93.5138 178.52C89.9938 174.36 87.3538 169.8 85.5938 164.84C83.8338 159.88 82.9538 154.44 82.9538 148.52C82.9538 141.48 84.2338 134.28 86.7938 126.92C89.5138 119.56 93.9138 111.64 99.9938 103.16C106.074 94.52 114.234 84.92 124.474 74.36C134.714 63.8 147.354 51.72 162.394 38.12L159.754 46.28C151.594 49.64 143.114 52.52 134.314 54.92C125.674 57.32 117.834 58.52 110.794 58.52C105.194 58.52 100.394 57.64 96.3938 55.88C92.3938 54.12 89.2738 51.64 87.0338 48.44C84.9538 45.24 83.9138 41.4 83.9138 36.92C83.9138 32.12 85.7538 27.88 89.4337 24.2C93.1138 20.36 97.3538 18.44 102.154 18.44C103.754 22.12 105.834 25.16 108.394 27.56C110.954 29.8 114.234 31.48 118.234 32.6C122.394 33.72 127.274 34.28 132.874 34.28C137.994 34.28 142.394 33.88 146.074 33.08C149.914 32.28 153.354 31.32 156.394 30.2C159.594 29.08 162.394 28.12 164.794 27.32C167.354 26.36 169.754 25.88 171.994 25.88C175.994 25.88 178.954 26.92 180.874 29C182.954 31.08 183.994 34.2 183.994 38.36L169.114 51.56C161.754 58.12 155.194 64.68 149.434 71.24C143.834 77.64 139.034 84.04 135.034 90.44C131.034 96.68 127.754 102.92 125.194 109.16C122.634 115.24 120.714 121.32 119.434 127.4C118.314 133.32 117.754 139.32 117.754 145.4C117.754 151 118.314 156.04 119.434 160.52C120.714 164.84 122.554 168.76 124.954 172.28C127.354 175.64 130.554 178.6 134.554 181.16C138.554 183.72 143.274 185.96 148.714 187.88L153.034 189.32C157.034 190.6 160.474 192.12 163.354 193.88C166.394 195.48 168.874 197.32 170.794 199.4C172.874 201.64 174.394 204.04 175.354 206.6C176.314 209.16 176.794 211.96 176.794 215C176.794 219.16 175.754 223.32 173.674 227.48C171.594 231.64 168.554 235.08 164.554 237.8C160.714 240.68 155.834 242.12 149.914 242.12Z" fill="black"/>
</svg>
